HIERARCHY
ROOT Hips
{
  OFFSET 5.84602e-005 68.8428 3.50346
  CHANNELS 6 Xposition Yposition Zposition Zrotation Xrotation Yrotation
  JOINT Spine
  {
    OFFSET 0 8.597 -4.6522
    CHANNELS 3 Zrotation Xrotation Yrotation
    JOINT Spine1
    {
      OFFSET 0 7.8454 0.4098
      CHANNELS 3 Zrotation Xrotation Yrotation
      JOINT Spine2
      {
        OFFSET 0 9.7078 -2.1609
        CHANNELS 3 Zrotation Xrotation Yrotation
        JOINT Neck
        {
          OFFSET 0 21.8761 -0.4549
          CHANNELS 3 Zrotation Xrotation Yrotation
          JOINT Head
          {
            OFFSET 0 12.3537 3.3602
            CHANNELS 3 Zrotation Xrotation Yrotation
            End Site
            {
              OFFSET 0.0001 18.9506 0.5657
            }
          }
        }
        JOINT LeftShoulder
        {
          OFFSET 2.2086 21.1115 7.2329
          CHANNELS 3 Zrotation Xrotation Yrotation
          JOINT LeftArm
          {
            OFFSET 13.1193 3.0282 -4.8998
            CHANNELS 3 Zrotation Xrotation Yrotation
            JOINT LeftForeArm
            {
              OFFSET 27.4081 -0.0973053 -0.2375
              CHANNELS 3 Zrotation Xrotation Yrotation
              JOINT LeftHand
              {
                OFFSET 22.8641 0.0662994 -0.1369
                CHANNELS 3 Zrotation Xrotation Yrotation
                JOINT LeftHandIndex1
                {
                  OFFSET 8.8614 0.775009 2.4612
                  CHANNELS 3 Zrotation Xrotation Yrotation
                  JOINT LeftHandIndex2
                  {
                    OFFSET 3.3146 -0.808304 0.5841
                    CHANNELS 3 Zrotation Xrotation Yrotation
                    JOINT LeftHandIndex3
                    {
                      OFFSET 2.2628 -0.552002 0.3989
                      CHANNELS 3 Zrotation Xrotation Yrotation
                      End Site
                      {
                        OFFSET 1.6102 -0.4807 0.2612
                      }
                    }
                  }
                }
                JOINT LeftHandMiddle1
                {
                  OFFSET 8.9937 0.895004 0.2143
                  CHANNELS 3 Zrotation Xrotation Yrotation
                  JOINT LeftHandMiddle2
                  {
                    OFFSET 4.0984 0.0113983 -0.0242
                    CHANNELS 3 Zrotation Xrotation Yrotation
                    JOINT LeftHandMiddle3
                    {
                      OFFSET 2.2716 0.00689697 -0.0138001
                      CHANNELS 3 Zrotation Xrotation Yrotation
                      End Site
                      {
                        OFFSET 2.0404 -0.1441 0.0027
                      }
                    }
                  }
                }
                JOINT LeftHandRing1
                {
                  OFFSET 8.5234 0.597198 -2.0164
                  CHANNELS 3 Zrotation Xrotation Yrotation
                  JOINT LeftHandRing2
                  {
                    OFFSET 3.7188 -0.188293 -0.2328
                    CHANNELS 3 Zrotation Xrotation Yrotation
                    JOINT LeftHandRing3
                    {
                      OFFSET 2.1191 -0.106598 -0.1332
                      CHANNELS 3 Zrotation Xrotation Yrotation
                      End Site
                      {
                        OFFSET 1.8737 -0.2304 -0.0886
                      }
                    }
                  }
                }
                JOINT LeftHandPinky1
                {
                  OFFSET 7.9094 -0.601089 -3.4825
                  CHANNELS 3 Zrotation Xrotation Yrotation
                  JOINT LeftHandPinky2
                  {
                    OFFSET 2.2874 -0.477005 -0.6314
                    CHANNELS 3 Zrotation Xrotation Yrotation
                    JOINT LeftHandPinky3
                    {
                      OFFSET 1.6774 -0.349396 -0.4633
                      CHANNELS 3 Zrotation Xrotation Yrotation
                      End Site
                      {
                        OFFSET 1.4888 -0.4091 -0.3416
                      }
                    }
                  }
                }
                JOINT LeftHandThumb1
                {
                  OFFSET 1.833 -1.3875 1.3896
                  CHANNELS 3 Zrotation Xrotation Yrotation
                  JOINT LeftHandThumb2
                  {
                    OFFSET 3.4129 -1.121 2.5732
                    CHANNELS 3 Zrotation Xrotation Yrotation
                    JOINT LeftHandThumb3
                    {
                      OFFSET 2.2474 -0.804199 1.6192
                      CHANNELS 3 Zrotation Xrotation Yrotation
                      End Site
                      {
                        OFFSET 1.6527 -0.5689 1.1317
                      }
                    }
                  }
                }
              }
            }
          }
        }
        JOINT RightShoulder
        {
          OFFSET -2.2086 21.1115 7.2329
          CHANNELS 3 Zrotation Xrotation Yrotation
          JOINT RightArm
          {
            OFFSET -13.1216 3.0287 -4.9007
            CHANNELS 3 Zrotation Xrotation Yrotation
            JOINT RightForeArm
            {
              OFFSET -27.4081 -0.0973053 -0.2375
              CHANNELS 3 Zrotation Xrotation Yrotation
              JOINT RightHand
              {
                OFFSET -22.8641 0.0664063 -0.1369
                CHANNELS 3 Zrotation Xrotation Yrotation
                JOINT RightHandIndex1
                {
                  OFFSET -8.8614 0.774994 2.4612
                  CHANNELS 3 Zrotation Xrotation Yrotation
                  JOINT RightHandIndex2
                  {
                    OFFSET -3.3146 -0.808304 0.5841
                    CHANNELS 3 Zrotation Xrotation Yrotation
                    JOINT RightHandIndex3
                    {
                      OFFSET -2.2628 -0.552002 0.3989
                      CHANNELS 3 Zrotation Xrotation Yrotation
                      End Site
                      {
                        OFFSET -1.6102 -0.4807 0.2612
                      }
                    }
                  }
                }
                JOINT RightHandMiddle1
                {
                  OFFSET -8.9937 0.894989 0.2143
                  CHANNELS 3 Zrotation Xrotation Yrotation
                  JOINT RightHandMiddle2
                  {
                    OFFSET -4.0984 0.0113983 -0.0242
                    CHANNELS 3 Zrotation Xrotation Yrotation
                    JOINT RightHandMiddle3
                    {
                      OFFSET -2.2716 0.00691223 -0.0138001
                      CHANNELS 3 Zrotation Xrotation Yrotation
                      End Site
                      {
                        OFFSET -2.0404 -0.1441 0.0027
                      }
                    }
                  }
                }
                JOINT RightHandRing1
                {
                  OFFSET -8.5234 0.597198 -2.0164
                  CHANNELS 3 Zrotation Xrotation Yrotation
                  JOINT RightHandRing2
                  {
                    OFFSET -3.7188 -0.188309 -0.2328
                    CHANNELS 3 Zrotation Xrotation Yrotation
                    JOINT RightHandRing3
                    {
                      OFFSET -2.1191 -0.106598 -0.1332
                      CHANNELS 3 Zrotation Xrotation Yrotation
                      End Site
                      {
                        OFFSET -1.8737 -0.2304 -0.0886
                      }
                    }
                  }
                }
                JOINT RightHandPinky1
                {
                  OFFSET -7.9094 -0.601105 -3.4825
                  CHANNELS 3 Zrotation Xrotation Yrotation
                  JOINT RightHandPinky2
                  {
                    OFFSET -2.2874 -0.477005 -0.6314
                    CHANNELS 3 Zrotation Xrotation Yrotation
                    JOINT RightHandPinky3
                    {
                      OFFSET -1.6774 -0.349396 -0.4633
                      CHANNELS 3 Zrotation Xrotation Yrotation
                      End Site
                      {
                        OFFSET -1.4888 -0.4091 -0.3416
                      }
                    }
                  }
                }
                JOINT RightHandThumb1
                {
                  OFFSET -1.833 -1.38751 1.3896
                  CHANNELS 3 Zrotation Xrotation Yrotation
                  JOINT RightHandThumb2
                  {
                    OFFSET -3.41299 -1.12099 2.5732
                    CHANNELS 3 Zrotation Xrotation Yrotation
                    JOINT RightHandThumb3
                    {
                      OFFSET -2.24741 -0.804108 1.6192
                      CHANNELS 3 Zrotation Xrotation Yrotation
                      End Site
                      {
                        OFFSET -1.6527 -0.5689 1.1317
                      }
                    }
                  }
                }
              }
            }
          }
        }
      }
    }
  }
  JOINT RightUpLeg
  {
    OFFSET -9.1966 3.8861 -0.7581
    CHANNELS 3 Zrotation Xrotation Yrotation
    JOINT RightLeg
    {
      OFFSET -0.7359 -41.0265 0
      CHANNELS 3 Zrotation Xrotation Yrotation
      JOINT RightFoot
      {
        OFFSET 0 -40.2855 0
        CHANNELS 3 Zrotation Xrotation Yrotation
        JOINT RightToeBase
        {
          OFFSET 0 -5.6122 11.7359
          CHANNELS 3 Zrotation Xrotation Yrotation
          End Site
          {
            OFFSET 0 0 7.8731
          }
        }
      }
    }
  }
  JOINT LeftUpLeg
  {
    OFFSET 9.1965 3.8864 -0.7581
    CHANNELS 3 Zrotation Xrotation Yrotation
    JOINT LeftLeg
    {
      OFFSET 0.7359 -41.0268 0
      CHANNELS 3 Zrotation Xrotation Yrotation
      JOINT LeftFoot
      {
        OFFSET 0 -40.2855 0
        CHANNELS 3 Zrotation Xrotation Yrotation
        JOINT LeftToeBase
        {
          OFFSET 0 -5.6122 11.7359
          CHANNELS 3 Zrotation Xrotation Yrotation
          End Site
          {
            OFFSET 0 0 7.8731
          }
        }
      }
    }
  }
}
MOTION
Frames:	4
Frame Time:	0.0333333
-51.6465 94.67 4.23845 -180 -6.99617 -7.01671e-015 -0.125954 -0.361777 -0.231203 -0.253374 -0.722982 -0.463214 -0.253374 -0.722988 -0.463214 -2.49011e-005 33.7236 0.00023486 -9.25772e-007 -77.4286 -7.17488e-007 -15.4776 -3.67972 34.145 0.410182 -1.59321 -79.9467 -21.9105 0.550527 -75.8057 -27.4402 -49.0493 -18.8752 1.27222e-014 1.59028e-015 -1.59028e-015 9.51638e-007 4.27487e-007 1.29389e-006 9.51638e-007 4.27487e-007 1.29389e-006 1.27222e-014 1.59028e-015 -1.59028e-015 -0.0145908 -9.24741e-005 4.21999e-006 9.51689e-007 4.27322e-007 1.29395e-006 1.27222e-014 1.59028e-015 -1.59028e-015 -0.0187436 -0.00117898 5.68909e-005 9.51716e-007 4.27279e-007 1.29395e-006 1.27222e-014 1.59028e-015 -1.59028e-015 -0.0122504 -0.00324476 0.000672691 9.51719e-007 4.27354e-007 1.29391e-006 1.27222e-014 1.59028e-015 -1.59028e-015 9.51638e-007 4.27487e-007 1.29389e-006 9.51638e-007 4.27487e-007 1.29389e-006 14.2983 -7.25238 -32.9721 -6.33268 1.83561 86.3944 20.4799 -2.9084 74.3016 33.5553 -46.701 23.239 -2.27835e-006 -7.26733e-008 -4.12253e-007 -9.54166e-015 0 3.18055e-015 -2.27835e-006 -7.26733e-008 -4.12253e-007 -2.27835e-006 -7.26733e-008 -4.12253e-007 0.014979 -9.48293e-005 -4.12602e-006 -2.27844e-006 -7.27267e-008 -4.12241e-007 -2.27835e-006 -7.26733e-008 -4.12253e-007 0.0189742 -0.00118994 -5.81036e-005 -2.27847e-006 -7.27356e-008 -4.12217e-007 -2.27835e-006 -7.26733e-008 -4.12253e-007 0.0122 -0.00322645 -0.00067415 -2.27843e-006 -7.27114e-008 -4.12177e-007 -2.27835e-006 -7.26733e-008 -4.12253e-007 -9.54166e-015 0 3.18055e-015 -2.27835e-006 -7.26733e-008 -4.12253e-007 -46.5 -49.9744 -49.1389 116.279 38.6112 -106.86 -29.1395 14.1032 33.9996 2.90539e-006 -6.03424e-006 -1.16563e-006 26.9497 -48.8132 28.7322 -112.889 37.0302 110.779 32.2214 10.0168 -34.9863 3.42932e-006 -2.41416e-006 5.90321e-008 
-51.6464 94.6703 4.23862 -180 -6.99617 -7.01671e-015 -0.125474 -0.510717 -0.231879 -0.25303 -1.02087 -0.464904 -0.25303 -1.02087 -0.464904 3.75809e-006 33.375 7.57296e-006 3.29395e-007 -75.4174 7.38251e-008 -15.6412 -3.1326 32.8819 0.744589 -1.41647 -79.6891 -21.844 0.0948306 -74.7171 -27.7394 -48.9629 -18.9537 8.27976e-007 9.41269e-006 -1.96359e-006 6.36111e-015 -3.18055e-015 -0 3.40766e-007 -8.14425e-007 -2.24745e-006 8.27976e-007 9.41269e-006 -1.96359e-006 -0.0146264 -8.95375e-005 7.50229e-007 3.40769e-007 -8.14138e-007 -2.24756e-006 8.27976e-007 9.41269e-006 -1.96359e-006 -0.0187196 -0.00116942 5.53551e-005 3.40748e-007 -8.14058e-007 -2.24759e-006 8.27976e-007 9.41269e-006 -1.96359e-006 -0.0123234 -0.00326404 0.000677517 -8.97661e-007 4.85989e-007 -3.05421e-006 8.27976e-007 9.41269e-006 -1.96359e-006 6.36111e-015 -3.18055e-015 -0 3.40766e-007 -8.14425e-007 -2.24745e-006 14.6015 -6.55278 -31.7454 -6.79044 2.23956 85.1048 20.4301 -3.08256 73.7564 33.9143 -46.5378 23.4279 -3.21845e-006 2.25121e-007 -1.74168e-006 -3.61977e-006 -4.59407e-007 5.37729e-007 -1.34036e-006 -3.81312e-007 9.39046e-007 -3.21845e-006 2.25121e-007 -1.74168e-006 0.0150205 -9.4822e-005 1.49645e-006 -1.3404e-006 -3.81188e-007 9.39097e-007 -3.21845e-006 2.25121e-007 -1.74168e-006 0.0190239 -0.00119683 -6.19645e-005 -1.3404e-006 -3.81153e-007 9.39123e-007 -3.21845e-006 2.25121e-007 -1.74168e-006 0.0122756 -0.00325423 -0.000678081 -1.34037e-006 -3.8121e-007 9.39127e-007 -3.21845e-006 2.25121e-007 -1.74168e-006 -3.61977e-006 -4.59407e-007 5.37729e-007 -1.34036e-006 -3.81312e-007 9.39046e-007 -46.5228 -50.1345 -49.0656 116.279 38.6111 -106.858 -28.9502 14.1418 33.8892 -3.01896e-006 4.58707e-007 -9.18036e-007 26.8009 -49.2194 28.321 -112.889 37.0303 110.775 31.7473 10.192 -34.7407 3.47873e-015 -1.59028e-014 -3.72721e-015 
-51.6463 94.6706 4.23878 -180 -6.99617 -7.01671e-015 -0.125067 -0.643905 -0.232519 -0.25277 -1.28728 -0.466488 -0.25277 -1.28728 -0.466488 -4.88212e-006 33.0641 7.23465e-005 1.26798e-006 -73.6111 1.35913e-006 -15.7782 -2.64065 31.7528 1.04272 -1.25797 -79.4597 -21.7783 -0.304376 -73.7412 -28.006 -48.8856 -19.0231 -2.24915e-006 -2.65878e-008 -3.39627e-007 -3.96065e-006 2.87902e-006 -1.66829e-007 -1.59644e-006 2.11571e-006 1.46355e-006 -2.24915e-006 -2.65878e-008 -3.39627e-007 -0.0146148 -9.1623e-005 -1.05444e-006 -1.59779e-006 2.11551e-006 1.46382e-006 -2.24915e-006 -2.65878e-008 -3.39627e-007 -0.0187947 -0.00118115 5.95347e-005 -3.39608e-007 8.10004e-007 2.24929e-006 -2.24915e-006 -2.65878e-008 -3.39627e-007 -0.0122817 -0.00324849 0.00067288 -1.59752e-006 2.11526e-006 1.46388e-006 -2.24915e-006 -2.65878e-008 -3.39627e-007 -3.96065e-006 2.87902e-006 -1.66829e-007 -1.59644e-006 2.11571e-006 1.46355e-006 14.8612 -5.92185 -30.6511 -7.19075 2.63159 83.9638 20.3842 -3.23734 73.2689 34.2335 -46.3914 23.5949 1.59028e-014 -1.43125e-014 -0 6.36111e-015 -1.11319e-014 4.77083e-015 -3.18055e-015 -1.11319e-014 -1.59028e-015 1.59028e-014 -1.43125e-014 -0 0.0149763 -8.71982e-005 3.40964e-007 -6.36111e-015 -3.18055e-015 1.59028e-015 1.59028e-014 -1.43125e-014 -0 0.0190107 -0.00119043 -5.85795e-005 6.36111e-015 -3.18055e-015 3.18055e-015 1.59028e-014 -1.43125e-014 -0 0.0122981 -0.00325484 -0.000675557 -3.18055e-015 3.18055e-015 -0 1.59028e-014 -1.43125e-014 -0 6.36111e-015 -1.11319e-014 4.77083e-015 -3.18055e-015 -1.11319e-014 -1.59028e-015 -46.543 -50.2775 -48.9999 116.28 38.6111 -106.857 -28.781 14.1761 33.7905 -4.58587e-007 -3.01901e-006 1.22327e-006 26.6631 -49.5816 27.9493 -112.888 37.0303 110.771 31.3229 10.3467 -34.5198 -1.0544e-007 -3.50612e-006 2.92532e-007 
-51.6461 94.6708 4.23895 -180 -6.99617 -7.01671e-015 -0.124643 -0.777124 -0.233125 -0.252481 -1.55368 -0.468005 -0.252482 -1.55368 -0.468005 5.2354e-006 32.7528 -3.37839e-005 -1.57499e-006 -71.7972 -1.71762e-006 -15.9057 -2.1455 30.6229 1.34026 -1.09825 -79.231 -21.7056 -0.70338 -72.7633 -28.272 -48.8079 -19.0919 -1.87156e-006 -2.53366e-006 4.6776e-007 -3.92479e-006 2.88318e-006 -1.89153e-007 -2.2508e-006 -2.14551e-008 -3.38717e-007 -1.87156e-006 -2.53366e-006 4.6776e-007 -0.0146021 -8.60912e-005 -4.40531e-006 -2.2509e-006 -2.14126e-008 -3.38718e-007 -1.87156e-006 -2.53366e-006 4.6776e-007 -0.0187678 -0.00118018 6.10089e-005 -2.25093e-006 -2.14067e-008 -3.38697e-007 -1.87156e-006 -2.53366e-006 4.6776e-007 -0.0123487 -0.0032624 0.000681868 -2.62844e-006 2.49132e-006 -1.14494e-006 -1.87156e-006 -2.53366e-006 4.6776e-007 -3.92479e-006 2.88318e-006 -1.89153e-007 -2.2508e-006 -2.14551e-008 -3.38717e-007 15.1089 -5.28526 -29.5586 -7.58369 3.02535 82.8226 20.337 -3.39178 72.781 34.5511 -46.2442 23.7602 -2.2814e-006 -8.90244e-008 -3.81482e-007 -2.84988e-006 8.98304e-007 -3.99432e-006 -8.86926e-008 2.30285e-006 -2.25602e-006 -2.2814e-006 -8.90244e-008 -3.81482e-007 0.0150483 -9.00456e-005 -4.59454e-006 -1.90002e-006 5.9852e-007 -2.66296e-006 -2.2814e-006 -8.90244e-008 -3.81482e-007 0.0190224 -0.00119725 -6.18861e-005 -8.71029e-008 2.30237e-006 -2.2564e-006 -2.2814e-006 -8.90244e-008 -3.81482e-007 0.0123632 -0.00327278 -0.000685383 -8.77214e-008 2.30232e-006 -2.25632e-006 -2.2814e-006 -8.90244e-008 -3.81482e-007 -2.84988e-006 8.98304e-007 -3.99432e-006 -8.86926e-008 2.30285e-006 -2.25602e-006 -46.5631 -50.4206 -48.9342 116.28 38.6111 -106.856 -28.6116 14.2101 33.6916 -3.47751e-006 1.07028e-006 5.92644e-007 26.5207 -49.9433 27.5733 -112.888 37.0304 110.767 30.8975 10.4997 -34.2975 7.8023e-015 -3.18055e-015 3.27995e-015 
